<?xml version="1.0" encoding="utf-8"?>
<!-- Generator: Adobe Illustrator 27.5.0, SVG Export Plug-In . SVG Version: 6.00 Build 0)  -->
<svg version="1.1" id="Layer_1" xmlns="http://www.w3.org/2000/svg" xmlns:xlink="http://www.w3.org/1999/xlink" x="0px" y="0px"
	 viewBox="0 0 90 120" style="enable-background:new 0 0 90 120;" xml:space="preserve">
<style type="text/css">
	.st0{fill:#F44336;}
	.st1{fill:#1565C0;}
</style>
<g>
	<path class="st0" d="M43.9,62.7c-3-4.8-5.2-8.8-8.2-16.4C30.7,33.6,66.7,22.1,52.1,0c6.3,15.3-22.7,24.7-25.4,37.4
		C24.2,49.1,43.9,62.7,43.9,62.7z"/>
	<path class="st0" d="M44.6,39.8c-0.6,7.5,6.7,11.6,6.9,17.1c0.2,4.5-4.3,8.2-4.3,8.2s8.2-1.6,10.7-8.5c2.8-7.6-5.5-12.8-4.6-18.9
		c0.8-5.8,18.1-16.6,18.1-16.6S45.9,22.8,44.6,39.8z"/>
	<g>
		<path class="st1" d="M69.3,63.2c5.3-1.2,9.7,2.2,9.7,6c0,8.7-12.1,16.9-12.1,16.9s18.7-2.2,18.7-16.5
			C85.6,60.2,76.4,57.8,69.3,63.2z M60.4,70.2c0,0,5.8-4.1,7.4-5.7c-14.3,3-46.9,3.4-46.9,0.8c0-2.4,10.5-4.9,10.5-4.9S8,60,8,66.9
			C8,74.1,38.6,74.6,60.4,70.2z"/>
		<path class="st1" d="M56.8,76.7c-13.5,4.5-38.4,3.1-31.1-3c-3.6,0-8.9,2.9-8.9,5.7c0,5.6,26.9,9.9,46.9,1.7L56.8,76.7z"/>
		<path class="st1" d="M29.1,86.2c-4.9,0-8.1,3.2-8.1,5.5c0,7.2,29.3,7.9,40.9,0.6l-7.4-4.9C45.8,91.2,24,91.7,29.1,86.2z"/>
		<path class="st1" d="M81.8,97.9c0-2.8-3.2-4.1-4.3-4.8c6.7,16.1-67,14.9-67,5.4c0-2.2,5.4-4.3,10.4-3.3l-4.3-2.5
			C6.8,91.1,0,95.5,0,99.1C0,115.6,81.8,114.8,81.8,97.9z"/>
		<path class="st1" d="M90,103.8c-12.4,12.3-44,16.8-75.7,9.2C46,126.5,89.9,118.9,90,103.8z"/>
	</g>
</g>
</svg>
