<?xml version="1.0" encoding="utf-8"?>
<!-- Generator: Adobe Illustrator 27.5.0, SVG Export Plug-In . SVG Version: 6.00 Build 0)  -->
<svg version="1.1" id="Layer_1" xmlns="http://www.w3.org/2000/svg" xmlns:xlink="http://www.w3.org/1999/xlink" x="0px" y="0px"
	 viewBox="0 0 800 349.5" style="enable-background:new 0 0 800 349.5;" xml:space="preserve">
<style type="text/css">
	.st0{fill:#5586A4;}
</style>
<g>
	<path class="st0" d="M131.2,104.8c0.3-0.2,0.6-0.3,1-0.5c8.9-4.2,19.3-6.3,31.1-6.3c11.8,0,22.2,2.1,31.1,6.3
		c8.9,4.2,16.4,9.8,22.3,16.9c6,7,10.5,15.1,13.5,24.3c3,9.1,4.5,18.7,4.5,28.5c0,9.9-1.5,19.4-4.5,28.5c-3,9.1-7.5,17.2-13.5,24.3
		c-6,7-13.4,12.6-22.3,16.8c-8.9,4.1-19.3,6.2-31.1,6.2c-11.8,0-22.2-2.1-31.1-6.2c-1.9-0.9-3.7-1.8-5.4-2.8
		c46.4,42.1,135.7,70.5,238.3,70.5c83.4,0,158.2-16.9,208.1-46.6c-54.6,49.7-152.1,84.7-263.4,84.7C138.7,349.5,0,271.2,0,174.7
		C0,78.2,138.7,0,309.9,0c111.7,0,209.4,35.2,263.9,85.2c-49.9-29.9-125-47.1-208.8-47.1C265.6,38.1,178.7,64.9,131.2,104.8
		L131.2,104.8z M114.6,195.7c2,7.1,5,13.5,9.2,19.2c4.2,5.7,9.5,10.3,16.1,13.7c6.5,3.5,14.3,5.2,23.4,5.2c9.1,0,16.9-1.7,23.4-5.2
		c6.5-3.5,11.9-8,16.1-13.7c4.2-5.7,7.2-12.1,9.2-19.2c2-7.1,2.9-14.3,2.9-21.7c0-7.3-1-14.5-2.9-21.7c-2-7.1-5-13.5-9.2-19.2
		c-4.2-5.7-9.5-10.3-16.1-13.7c-6.6-3.5-14.4-5.2-23.4-5.2c-9.1,0-16.9,1.7-23.4,5.2c-6.6,3.5-11.9,8-16.1,13.7
		c-4.2,5.7-7.2,12.1-9.2,19.2c-2,7.1-2.9,14.3-2.9,21.7C111.6,181.4,112.6,188.6,114.6,195.7z M264,154.1v12.5h0.3
		c2.6-5.1,6.6-8.9,12.1-11.2c5.5-2.3,11.5-3.5,18.1-3.5c7.3,0,13.7,1.3,19.1,3.9c5.4,2.6,9.9,6.2,13.5,10.6
		c3.6,4.5,6.3,9.6,8.1,15.5c1.8,5.8,2.7,12,2.7,18.6c0,6.6-0.9,12.8-2.7,18.6c-1.8,5.8-4.5,10.9-8,15.3c-3.6,4.4-8.1,7.8-13.5,10.3
		c-5.4,2.5-11.7,3.8-18.9,3.8c-2.3,0-4.9-0.2-7.8-0.7c-2.9-0.5-5.7-1.3-8.5-2.3c-2.8-1.1-5.5-2.5-8-4.4c-2.5-1.8-4.6-4.1-6.3-6.9
		H264V282h-15.7V154.1H264z M319.7,187c-1.2-4.1-2.9-7.8-5.3-11c-2.4-3.2-5.4-5.8-9.1-7.7c-3.7-1.9-8.1-2.9-13.1-2.9
		c-5.2,0-9.7,1-13.3,3c-3.7,2-6.6,4.7-8.9,8c-2.3,3.3-4,7-5,11.2c-1,4.2-1.5,8.4-1.5,12.7c0,4.5,0.5,8.9,1.6,13.1
		c1.1,4.2,2.8,8,5.2,11.2c2.4,3.2,5.4,5.8,9.2,7.8c3.8,2,8.3,2.9,13.7,2.9c5.4,0,9.8-1,13.4-3c3.6-2,6.5-4.7,8.7-8
		c2.2-3.3,3.8-7.1,4.7-11.4c1-4.3,1.5-8.7,1.5-13.2C321.5,195.3,320.9,191.1,319.7,187z M418.1,240.7c-7.1,5.2-16,7.9-26.8,7.9
		c-7.6,0-14.2-1.2-19.7-3.6c-5.6-2.4-10.2-5.7-14-10c-3.8-4.3-6.6-9.4-8.5-15.4c-1.9-6-3-12.5-3.2-19.5c0-7,1.1-13.5,3.3-19.3
		c2.2-5.8,5.3-10.9,9.3-15.2c4-4.3,8.7-7.6,14.1-10c5.4-2.4,11.4-3.6,17.9-3.6c8.4,0,15.4,1.7,21,5.1c5.6,3.4,10,7.7,13.4,13
		c3.4,5.3,5.7,11,7,17.2c1.3,6.2,1.8,12.1,1.6,17.7h-70.9c-0.1,4,0.4,7.9,1.5,11.5c1.1,3.6,2.9,6.8,5.3,9.6c2.4,2.8,5.5,5,9.3,6.7
		c3.8,1.7,8.2,2.5,13.4,2.5c6.6,0,12-1.5,16.2-4.5c4.2-3,7-7.5,8.3-13.6h15.4C429.8,227.7,425.2,235.5,418.1,240.7z M414.3,181.4
		c-1.4-3.2-3.3-6-5.7-8.3c-2.4-2.3-5.2-4.2-8.4-5.5c-3.2-1.4-6.8-2.1-10.7-2.1c-4,0-7.6,0.7-10.9,2.1c-3.2,1.4-6,3.2-8.3,5.6
		c-2.3,2.4-4.1,5.1-5.5,8.3c-1.3,3.2-2.1,6.5-2.4,10.1h54.3C416.5,188,415.7,184.6,414.3,181.4z M458.5,154.1v14.7h0.3
		c6.5-11.2,16.8-16.8,30.9-16.8c6.3,0,11.5,0.8,15.6,2.5c4.2,1.7,7.5,4,10.1,7c2.6,3,4.4,6.5,5.4,10.7c1,4.1,1.6,8.7,1.6,13.7v60.9
		h-15.7v-62.6c0-5.7-1.7-10.3-5.1-13.6c-3.4-3.3-8.1-5-14.1-5c-4.8,0-8.9,0.7-12.4,2.2c-3.5,1.4-6.4,3.5-8.7,6.1
		c-2.3,2.6-4.1,5.7-5.2,9.2c-1.2,3.5-1.7,7.4-1.7,11.5v52.3h-15.7v-92.6H458.5z M631,245.7c-7.1,2.9-14.2,4.4-21.5,4.4
		c-11.4,0-21.6-1.9-30.7-5.8c-9.1-3.9-16.8-9.2-23-16c-6.3-6.8-11-14.8-14.4-24c-3.3-9.2-5-19.1-5-29.7c0-10.9,1.7-21,5-30.3
		c3.3-9.3,8.1-17.4,14.3-24.4c6.2-6.9,13.9-12.4,23-16.3c9.1-3.9,19.3-5.9,30.7-5.9c7.6,0,15,1.1,22.2,3.4
		c7.2,2.3,13.6,5.6,19.4,9.9c5.8,4.4,10.5,9.7,14.3,16.1c3.8,6.4,6,13.7,6.9,22h-31.2c-1.9-8.1-5.7-14.2-11.3-18.3
		c-5.6-4.1-12.3-6.1-20.2-6.1c-7.4,0-13.6,1.4-18.8,4.2c-5.1,2.8-9.3,6.5-12.5,11.2c-3.2,4.7-5.5,10-7,16c-1.5,6-2.2,12.2-2.2,18.6
		c0,6.1,0.7,12.1,2.2,17.8c1.5,5.8,3.8,11,7,15.6c3.2,4.6,7.4,8.3,12.5,11.1c5.1,2.8,11.4,4.2,18.8,4.2c10.8,0,19.2-2.7,25.1-8
		c5.9-5.3,9.4-13.1,10.3-23.3H612v-23.9h62.4v78.6h-20.8l-3.3-16.5C644.5,237.7,638.1,242.8,631,245.7z M727.5,101.4v118.3H800v27
		H694.9V101.4H727.5z"/>
</g>
</svg>
